<svg xmlns="http://www.w3.org/2000/svg" xmlns:xlink="http://www.w3.org/1999/xlink" version="1.1" id="Layer_1" x="0" y="0" width="233.15" height="95.65" viewBox="0" enable-background="new 0 0 233.152 95.652" xml:space="preserve"><path fill="#AFF6A1" d="M113.89 73.74c0-0.13 0.03-0.91 0.1-2.35 0.06-1.44 0.2-3.35 0.42-5.74 0.22-2.39 0.46-5.15 0.74-8.29 0.28-3.13 0.68-6.44 1.19-9.91 0.51-3.48 1.12-7.04 1.81-10.69 0.7-3.65 1.53-7.21 2.49-10.67 0.96-3.46 2.06-6.72 3.3-9.79 1.24-3.06 2.62-5.74 4.16-8.04 1.54-2.29 3.26-4.11 5.15-5.44 1.89-1.33 3.97-2 6.23-2 0.87 0 1.79 0.15 2.76 0.45 0.96 0.3 1.84 0.79 2.64 1.47 0.8 0.68 1.46 1.57 1.98 2.69 0.53 1.12 0.79 2.49 0.79 4.12 0 1.52-0.25 3.26-0.73 5.23 -0.49 1.97-1.18 4.07-2.07 6.31 -0.89 2.24-1.93 4.56-3.14 6.98 -1.2 2.42-2.52 4.83-3.95 7.23 -1.43 2.4-2.94 4.77-4.51 7.1 -1.58 2.33-3.19 4.51-4.83 6.54l-0.07 0.62c0.54-0.23 0.95-0.37 1.22-0.44 0.27-0.07 0.56-0.1 0.85-0.1 0.36 0 0.65 0.03 0.87 0.08 0.22 0.06 0.42 0.12 0.6 0.19s0.37 0.13 0.56 0.19c0.19 0.06 4.48 1.13 7.47 1.07 2.99-0.07 5.35-0.87 6.69-1.61 -1 4.88 1.49 4.15 1.49 4.15 -1.7 0.94-3.48 1.67-5.33 2.19 -1.85 0.52-3.57 0.91-5.14 1.17 -1.83 0.29-3.67 0.47-5.52 0.55 1 1.7 1.89 3.46 2.69 5.28 0.69 1.57 1.32 3.32 1.88 5.26 0.56 1.94 0.85 3.9 0.85 5.88 0 0.23-0.04 0.72-0.1 1.47 -0.07 0.74-0.18 1.66-0.35 2.74 -0.16 1.08-0.39 2.27-0.69 3.59 -0.3 1.31-0.68 2.63-1.15 3.97 -0.47 1.33-1.04 2.63-1.72 3.87 -0.68 1.25-1.46 2.35-2.37 3.32 -0.9 0.96-1.94 1.74-3.11 2.33 -1.17 0.59-2.5 0.89-3.98 0.89 -1.41 0-2.64-0.32-3.69-0.96 -1.05-0.64-1.94-1.51-2.69-2.6 -0.74-1.09-1.36-2.36-1.86-3.81 -0.5-1.45-0.89-2.98-1.17-4.6 -0.28-1.62-0.48-3.27-0.59-4.95C113.95 76.93 113.89 75.31 113.89 73.74zM124.11 53.43c-0.1 0-0.22 0.3-0.35 0.88 -0.13 0.59-0.23 1.33-0.3 2.22 -0.07 0.89-0.17 2.16-0.3 3.8 -0.13 1.64-0.24 2.99-0.32 4.04 -0.09 1.05-0.15 2.05-0.21 2.99 -0.05 0.94-0.08 1.68-0.08 2.22 0 3.79 0.07 6.8 0.21 9.04 0.14 2.24 0.32 3.94 0.54 5.1 0.22 1.16 0.47 1.91 0.74 2.26 0.27 0.35 0.55 0.52 0.83 0.52 0.88 0 1.59-0.4 2.12-1.19 0.53-0.8 0.93-1.81 1.2-3.03 0.27-1.22 0.45-2.56 0.55-4.02 0.09-1.45 0.14-2.85 0.14-4.19 0-0.9-0.02-2.01-0.08-3.32 -0.05-1.31-0.13-2.73-0.23-4.25 -0.1-1.52-0.32-3.24-0.65-5.16 -0.32-1.92-0.78-3.36-1.37-4.33 -0.59-0.97-1.06-1.8-1.42-2.51C124.77 53.79 124.42 53.43 124.11 53.43zM133.89 13.05c-1.52 3.42-2.76 6.67-3.74 9.76 -0.9 2.83-1.56 5.33-2.01 7.52 -0.45 2.19-0.77 4.11-0.95 5.77 -0.19 1.66-0.37 3.19-0.56 4.61 1.65-2.96 3.36-5.84 5.12-8.64 1.76-2.8 3.3-5.43 4.62-7.89 1.32-2.45 2.45-4.83 3.39-7.11 0.94-2.29 1.41-3.92 1.41-4.9 0-1.36-0.19-2.36-0.57-2.99 -0.38-0.63-1.02-0.94-1.91-0.94 -1.41 0-2.35 0.31-2.84 0.93C135.46 9.67 134.81 10.97 133.89 13.05z"/><path fill="#AFF6A1" d="M148.45 29.84c0.66-0.63 1.47-1.03 2.43-1.2 0.96-0.17 1.76-0.12 2.38 0.16 0.63 0.28 1.16 0.78 1.6 1.49 0.44 0.71 1.11 2.54 1.21 3.58 0.09 1.05 0.16 2.15 0.21 3.32 0.05 1.17 0.06 2.47 0.03 3.9 -0.04 1.43-0.14 2.49-0.31 3.19 -0.18 0.7-0.44 1.43-0.78 2.2 -0.35 0.77-0.86 1.58-1.54 2.43 -0.68 0.86-1.52 1.65-2.51 2.38 -0.99 0.73-1.91 1.28-2.74 1.65 -0.84 0.37-1.75 0.38-2.72 0.05 -0.98-0.33-1.77-0.85-2.38-1.57 -0.61-0.72-1.1-1.46-1.46-2.22 -0.36-0.77-0.52-2.11-0.47-4.03 0.05-1.92 0.27-3.46 0.63-4.63 0.37-1.17 0.93-2.39 1.7-3.66 0.77-1.27 0.99-1.87 0.68-1.78 -0.31 0.09-0.4 0.04-0.24-0.13 0.16-0.17 0.76-0.92 1.81-2.25C146.99 31.39 147.82 30.43 148.45 29.84zM151.07 38.06c-0.77-0.94-1.73-0.68-2.88 0.78 -1.15 1.47-1.84 3.02-2.06 4.66 -0.23 1.64-0.14 2.79 0.26 3.45 0.4 0.66 0.82 1.05 1.26 1.15 0.44 0.1 1.05-0.18 1.86-0.86 0.8-0.68 1.46-2.15 1.96-4.42C151.97 40.55 151.83 38.96 151.07 38.06z"/><path fill="#AFF6A1" d="M159.25 29.84c0.66-0.63 1.47-1.03 2.43-1.2 0.96-0.17 1.75-0.12 2.38 0.16 0.63 0.28 1.16 0.78 1.6 1.49 0.44 0.71 1.53 1.06 3.27 1.02 1.75-0.03 3.91-0.02 6.52 0.03 2.6 0.05 2.05 0.13-1.65 0.24 -3.7 0.1-5.8 0.25-6.3 0.44 -0.51 0.19-0.72 0.81-0.63 1.86 0.09 1.05 0.16 2.15 0.21 3.32 0.05 1.17 0.06 2.47 0.02 3.9 -0.04 1.43-0.14 2.49-0.31 3.19 -0.18 0.7-0.44 1.43-0.79 2.2 -0.35 0.77-0.86 1.58-1.54 2.43 -0.68 0.86-1.52 1.65-2.51 2.38 -0.99 0.73-1.91 1.28-2.75 1.65 -0.84 0.37-1.74 0.38-2.72 0.05 -0.98-0.33-1.77-0.85-2.38-1.57 -0.61-0.72-1.1-1.46-1.47-2.22 -0.37-0.77-0.52-2.11-0.47-4.03 0.05-1.92 0.26-3.46 0.63-4.63 0.37-1.17 0.93-2.39 1.7-3.66 0.77-1.27 0.99-1.87 0.68-1.78 -0.31 0.09-0.39 0.04-0.23-0.13 0.16-0.17 0.76-0.92 1.81-2.25C157.78 31.39 158.62 30.43 159.25 29.84zM161.86 38.06c-0.77-0.94-1.72-0.68-2.88 0.78 -1.15 1.47-1.84 3.02-2.06 4.66 -0.23 1.64-0.14 2.79 0.26 3.45 0.4 0.66 0.82 1.05 1.26 1.15 0.44 0.1 1.05-0.18 1.85-0.86 0.8-0.68 1.46-2.15 1.96-4.42C162.76 40.55 162.63 38.96 161.86 38.06z"/><path fill="#AFF6A1" d="M199.25 61.31c-2.47 1.44-4.68 2.71-6.62 3.79 -1.93 1.08-3.65 1.98-5.16 2.7 -1.51 0.73-2.85 1.26-4.03 1.62 -1.17 0.36-2.24 0.54-3.19 0.54 -1.94 0-3.66-0.59-5.15-1.77 -1.49-1.19-2.73-2.89-3.73-5.12 -1-2.23-1.75-4.93-2.25-8.09 -0.5-3.17-0.75-6.74-0.75-10.7 0-1.55 0.06-3.19 0.19-4.95 0.13-1.75 0.31-3.49 0.54-5.22 -0.78-0.11-1.38-0.22-1.81-0.32 -0.43-0.1-0.88-0.2-1.36-0.3 -0.48-0.1-1.09-0.21-1.83-0.32 -0.74-0.11-1.81-0.26-3.21-0.43 -0.62-0.08-1.1-0.25-1.44-0.49 -0.34-0.24-0.58-0.53-0.74-0.86 -0.15-0.33-0.25-0.67-0.27-1.03 -0.02-0.36-0.04-0.67-0.04-0.93 0-0.4 0.25-0.71 0.76-0.93 0.51-0.21 1.15-0.37 1.94-0.48s1.66-0.17 2.6-0.18c0.94-0.01 1.85-0.01 2.72 0.02 0.87 0.02 1.65 0.04 2.33 0.06 0.69 0.01 1.16-0.01 1.42-0.06 0.69-3.47 1.57-6.83 2.64-10.07s2.26-6.14 3.59-8.67c1.33-2.53 2.77-4.56 4.34-6.09 1.57-1.53 3.21-2.29 4.94-2.29 1.11 0 2.12 0.31 3.04 0.93 0.92 0.62 1.69 1.44 2.34 2.47 0.64 1.03 1.14 2.23 1.49 3.61 0.35 1.38 0.52 2.81 0.52 4.3 0 1.23-0.18 2.54-0.54 3.91 -0.36 1.38-0.85 2.77-1.47 4.2s-2.11 3.77-2.52 4.33c-0.41 0.56-2.88 2.73-5.62 4.34 0.23-0.09 3.93-0.1 4.47-0.05 0.54 0.05 1.17 0.09 1.87 0.11 0.71 0.02 1.48 0.04 2.3 0.06 0.82 0.02 1.62 0.04 2.39 0.07 0.77 0.03 1.5 0.05 2.16 0.08 0.67 0.03 1.23 0.05 1.66 0.08 0.52 0.03 0.89 0.32 1.12 0.86 0.23 0.54 0.35 1.23 0.35 2.06 0 0.96-0.26 1.75-0.77 2.35 -0.52 0.6-1.08 0.91-1.7 0.91h-14.85c0 0-2.19-0.1-4-0.15 -0.05-0.05-0.39 5.87-0.39 5.87s-0.19 3.17-0.27 4.71c-0.03 0.67-0.05 1.36-0.08 2.07 -0.03 0.71-0.05 1.41-0.08 2.11 -0.02 0.7-0.04 1.37-0.06 2.01 -0.01 0.64-0.02 1.24-0.02 1.78 0 1.39 0.13 2.56 0.39 3.52s0.63 1.73 1.13 2.34c0.49 0.6 1.09 1.05 1.8 1.31 0.71 0.27 1.51 0.41 2.39 0.41 0.54 0 1.22-0.13 2.03-0.39 0.81-0.26 1.7-0.61 2.67-1.06 0.97-0.45 8.63-4.32 9.58-5.13C197.97 53.92 199.25 61.31 199.25 61.31zM186.89 12.39c0-0.28-0.02-0.6-0.06-0.94 -0.04-0.35-0.12-0.67-0.25-0.98 -0.13-0.31-0.33-0.56-0.6-0.77 -0.27-0.2-0.65-0.31-1.15-0.31 -0.67 0-1.35 0.59-2.03 1.76 -0.69 1.18-1.35 2.68-1.98 4.51 -0.63 1.83-1.23 3.84-1.78 6.04 -0.56 2.2-1.06 4.33-1.53 6.4 0.39 0.04 3.1-1.1 7.06-8.48 0.67-1.46 1.23-2.83 1.67-4.1C186.67 14.25 186.89 13.2 186.89 12.39z"/><path fill="#AFF6A1" d="M209.24 69.97c-2.4 0-4.51-0.44-6.31-1.33 -1.8-0.89-3.31-2.09-4.51-3.6 -1.2-1.5-2.1-3.25-2.71-5.23 -0.6-1.98-0.9-4.06-0.9-6.24 0-1.42 0.27-3.12 0.81-5.09 0.54-1.97 1.1-3.72 1.67-5.24 0.57-1.52 1.3-2.98 2.17-4.36 0.87-1.39 1.89-2.6 3.06-3.66 1.17-1.06 2.47-1.89 3.92-2.52 1.44-0.62 3.06-0.94 4.82-0.94 1.44 0 2.78 0.23 4.02 0.7 1.24 0.46 2.31 1.11 3.23 1.95 0.91 0.84 1.63 1.85 2.15 3.03 0.52 1.18 0.77 2.51 0.77 3.97 0 1.56-0.52 3.31-1.57 5.25 -1.04 1.94-2.27 3.6-3.66 4.99 -1.39 1.39-3.05 2.62-4.98 3.7 -1.92 1.08-3.93 1.93-6.01 3.1 0.39 0.68 0.53 0.68 0.9 1.13 0.38 0.45 0.76 0.81 1.14 1.06 0.39 0.25 0.79 0.43 1.22 0.53 0.43 0.1 0.89 0.15 1.38 0.15 1.55 0 3.17-0.3 4.89-0.91 1.71-0.6 3.38-1.36 5-2.27 1.62-0.91 3.15-1.9 4.6-2.97 1.44-1.07 2.66-2.08 3.67-3.04L233 57.19c-2.27 2.41-4.67 4.55-7.22 6.4 -1.11 0.8-2.3 1.58-3.57 2.35 -1.27 0.77-2.62 1.45-4.02 2.05 -1.4 0.6-2.86 1.07-4.36 1.43C212.31 69.79 210.78 69.97 209.24 69.97zM204.17 51.94c0.78-0.19 1.68-0.78 2.77-1.25 1.1-0.46 2.12-1.06 3.06-1.79 0.94-0.73 2.05-1.53 2.95-2.77 0.9-1.23 1.36-2.25 1.36-3.06 0-1.13-0.21-2.06-0.64-2.8 -0.43-0.73-0.95-1.1-1.57-1.1 -1.11 0-2.06 0.2-2.85 0.61s-1.45 0.93-1.98 1.57c-0.53 0.64-0.96 1.37-1.28 2.19s-0.7 1.83-1.12 3.04c-0.43 1.21-0.67 2.2-0.72 2.98C204.1 50.34 204.17 51.38 204.17 51.94z"/><path fill="#AFF6A1" d="M0.37 44.87c0-7.64 1.49-13.88 5.83-13.88 2.62 0 3.82 1.97 4.55 4.14l-1.21 0.48c-0.72-2.09-1.53-3.42-3.34-3.42 -3.18 0-4.42 5.63-4.42 12.67 0 7.04 1.25 12.67 4.42 12.67 2.05 0 2.86-1.85 3.46-4.22l1.21 0.48c-0.64 2.74-1.97 4.95-4.67 4.95C1.86 58.74 0.37 52.51 0.37 44.87z"/><path fill="#AFF6A1" d="M24.3 58.26V45.07h-7.52V58.26H15.49V31.43h1.29v12.43h7.52V31.43h1.29V58.26H24.3z"/><path fill="#AFF6A1" d="M39.22 58.26l-1.29-7.2h-6.35L30.29 58.26h-1.33l5.03-26.83h1.53l5.03 26.83H39.22zM34.76 33.32l-2.98 16.53h5.95L34.76 33.32z"/><path fill="#AFF6A1" d="M52.17 58.26l-3.98-11.62h-2.98V58.26h-1.29V31.43h4.02c3.18 0 5.43 2.69 5.43 7.6s-2.17 6.92-3.94 7.4l4.18 11.82H52.17zM51.97 39.03c0-3.7-1.25-6.39-4.06-6.39h-2.69V45.43h2.7C50.72 45.43 51.97 42.74 51.97 39.03z"/><path fill="#AFF6A1" d="M58.65 58.26V31.43h1.29v25.62h7.16v1.21H58.65z"/><path fill="#AFF6A1" d="M70.95 58.26V31.43h8.45v1.21h-7.16v11.22h6.88v1.21h-6.88v11.99h7.16v1.21H70.95z"/><path fill="#AFF6A1" d="M93.03 58.26l-7.52-23.13V58.26h-1.29V31.43h1.29l7.52 22.89V31.43h1.29V58.26H93.03z"/><path fill="#AFF6A1" d="M100.11 58.26V31.43h8.45v1.21h-7.16v11.22h6.88v1.21h-6.88v11.99h7.16v1.21H100.11z"/></svg>