<?xml version="1.0" encoding="utf-8"?>
<!-- Generator: Adobe Illustrator 15.0.0, SVG Export Plug-In . SVG Version: 6.00 Build 0)  -->
<!DOCTYPE svg PUBLIC "-//W3C//DTD SVG 1.1//EN" "http://www.w3.org/Graphics/SVG/1.1/DTD/svg11.dtd">
<svg version="1.1" id="Layer_1" xmlns="http://www.w3.org/2000/svg" xmlns:xlink="http://www.w3.org/1999/xlink" x="0px" y="0px"
	 width="56px" height="56px" viewBox="0 0 56 56" enable-background="new 0 0 56 56" xml:space="preserve">
<path fill="#FFFFFF" d="M28,0C12.535,0,0,12.538,0,28s12.535,28,28,28s28-12.538,28-28S43.465,0,28,0z M11.975,16.345h32.052
	c0.092,0,0.174,0.036,0.259,0.054L28,29.963L11.721,16.401C11.811,16.382,11.889,16.345,11.975,16.345z M10.52,38.193V17.805
	c0-0.157,0.045-0.296,0.092-0.436l11.548,9.618L10.594,38.553C10.559,38.436,10.52,38.323,10.52,38.193z M44.025,39.652h-32.05
	c-0.123,0-0.233-0.043-0.354-0.072L23.28,27.926l4.258,3.545c0.133,0.113,0.294,0.17,0.462,0.17s0.332-0.057,0.467-0.17l4.26-3.546
	l11.655,11.656C44.266,39.609,44.152,39.652,44.025,39.652z M45.48,38.193c0,0.129-0.035,0.238-0.068,0.354L33.848,26.986
	l11.547-9.616c0.047,0.138,0.088,0.278,0.088,0.433v20.391H45.48z"/>
</svg>
