<svg xmlns="http://www.w3.org/2000/svg" xmlns:xlink="http://www.w3.org/1999/xlink" version="1.1" id="Layer_1" x="0" y="0" width="56" height="56" viewBox="0" enable-background="new 0 0 56 56" xml:space="preserve"><path fill="#FFFFFF" d="M20.41 11.93c-0.04 0-0.07 0-0.11 0 -4.94 2.53-8.45 6.48-9.85 12.54 6.21-0.02 11.53-0.92 16.54-2.13C25.15 18.72 22.74 15.22 20.41 11.93z"/><path fill="#FFFFFF" d="M30 28.02c-0.55-0.95-0.89-2.11-1.53-2.96 -5.42 1.55-11.39 2.55-18.4 2.52 -0.01 5.74 1.93 9.53 4.66 12.54C18.27 34.55 23.13 30.29 30 28.02z"/><path fill="#FFFFFF" d="M17.02 42.26c1.96 1.64 4.78 3.07 8 3.61 3.59 0.61 7.35-0.01 10.02-1.2 -0.9-4.92-2.15-9.49-3.89-13.58C24.93 33.31 20.1 36.91 17.02 42.26z"/><path fill="#FFFFFF" d="M28 0C12.54 0 0 12.54 0 28s12.54 28 28 28S56 43.46 56 28 43.46 0 28 0zM47.24 36.73c-3.09 6.89-9.37 11.8-18.73 12.43 -0.33 0-0.66 0-0.98 0 -6.31-0.31-10.91-2.77-14.29-6.08 -3.37-3.3-5.81-7.91-6.24-14.07 0-0.6 0-1.2 0-1.81 0.04-0.01 0.06-0.05 0.06-0.11 0.24-4.78 1.86-8.48 4.11-11.44 2.27-2.98 5.07-5.36 8.65-6.9 3.74-1.6 8.95-2.13 13.31-1.04 3.98 0.99 7.41 3.04 9.91 5.7 2.5 2.65 4.62 5.93 5.53 10.02C49.57 27.95 48.89 33.06 47.24 36.73z"/><path fill="#FFFFFF" d="M39.91 14.77c-3.22-3.3-9.76-5.62-16.04-4.11 2.39 3.36 4.59 6.91 6.74 10.51C34.37 19.72 37.57 17.68 39.91 14.77z"/><path fill="#FFFFFF" d="M34.6 30.21c1.42 4.02 2.62 8.27 3.5 12.81 3.82-2.74 6.69-6.45 7.67-12.04C42.69 30.07 38.35 29.62 34.6 30.21z"/><path fill="#FFFFFF" d="M31.91 23.86c0.57 1.16 1.04 2.43 1.64 3.56 4.07-0.59 8.8-0.14 12.43 0.55 -0.14-4.95-1.78-8.4-4.11-11.17C39.39 19.98 35.91 22.18 31.91 23.86z"/></svg>