<?xml version="1.0" encoding="utf-8"?>
<!-- Generator: Adobe Illustrator 15.0.0, SVG Export Plug-In . SVG Version: 6.00 Build 0)  -->
<!DOCTYPE svg PUBLIC "-//W3C//DTD SVG 1.1//EN" "http://www.w3.org/Graphics/SVG/1.1/DTD/svg11.dtd">
<svg version="1.1" id="Layer_1" xmlns="http://www.w3.org/2000/svg" xmlns:xlink="http://www.w3.org/1999/xlink" x="0px" y="0px"
	 width="56px" height="56px" viewBox="0 0 56 56" enable-background="new 0 0 56 56" xml:space="preserve">
<path fill="#FFFFFF" d="M28,0C12.536,0,0,12.536,0,28s12.536,28,28,28c15.465,0,28-12.536,28-28S43.465,0,28,0z M37.458,20.858
	l-0.491,6.407h-6.57v22.262h-8.3v-22.26h-4.43V20.86h4.43v-2.01v-1.97v-0.328c0-1.894,0.049-4.822,1.427-6.634
	c1.452-1.919,3.445-3.225,6.875-3.225c5.586,0,7.939,0.795,7.939,0.795l-1.105,6.562c0,0-1.848-0.533-3.568-0.533
	c-1.725,0-3.266,0.614-3.266,2.337v0.697v2.298v2.009h7.062l0,0H37.458z"/>
</svg>
