<svg xmlns="http://www.w3.org/2000/svg" xmlns:xlink="http://www.w3.org/1999/xlink" version="1.1" id="Layer_1" x="0" y="0" width="56" height="56" viewBox="0" enable-background="new 0 0 56 56" xml:space="preserve"><path fill="#FFFFFF" d="M28 0C12.54 0 0 12.54 0 28s12.54 28 28 28 28-12.54 28-28C56 12.54 43.47 0 28 0zM43.52 21.11c0.01 0.33 0.02 0.66 0.02 1 0 10.15-7.73 21.86-21.86 21.86 -4.34 0-8.38-1.27-11.78-3.45 0.6 0.07 1.21 0.11 1.83 0.11 3.6 0 6.91-1.23 9.54-3.29 -3.36-0.06-6.2-2.28-7.18-5.33 0.47 0.09 0.95 0.14 1.45 0.14 0.7 0 1.38-0.1 2.03-0.27 -3.52-0.71-6.17-3.81-6.17-7.53 0-0.03 0-0.06 0-0.1 1.04 0.58 2.22 0.92 3.48 0.96 -2.06-1.38-3.42-3.73-3.42-6.4 0-1.41 0.38-2.73 1.04-3.86 3.79 4.65 9.45 7.71 15.84 8.03 -0.13-0.56-0.2-1.15-0.2-1.75 0-4.24 3.44-7.68 7.68-7.68 2.21 0 4.21 0.93 5.61 2.43 1.75-0.34 3.4-0.98 4.88-1.86 -0.57 1.79-1.79 3.3-3.38 4.25 1.56-0.18 3.04-0.6 4.41-1.21C46.33 18.67 45.02 20.03 43.52 21.11z"/></svg>