<?xml version="1.0" encoding="UTF-8"?>
<svg width="56px" height="56px" viewBox="0 0 56 56" version="1.1" xmlns="http://www.w3.org/2000/svg" xmlns:xlink="http://www.w3.org/1999/xlink">
    <!-- Generator: Sketch 49.3 (51167) - http://www.bohemiancoding.com/sketch -->
    <title>social-icon-twitter</title>
    <desc>Created with Sketch.</desc>
    <defs></defs>
    <g id="Page-1" stroke="none" stroke-width="1" fill="none" fill-rule="evenodd">
        <g id="social-icon-twitter" fill="#425057" fill-rule="nonzero">
            <path d="M28,0 C12.54,0 0,12.54 0,28 C0,43.46 12.54,56 28,56 C43.46,56 56,43.46 56,28 C56,12.54 43.47,0 28,0 Z M43.52,21.11 C43.53,21.44 43.54,21.77 43.54,22.11 C43.54,32.26 35.81,43.97 21.68,43.97 C17.34,43.97 13.3,42.7 9.9,40.52 C10.5,40.59 11.11,40.63 11.73,40.63 C15.33,40.63 18.64,39.4 21.27,37.34 C17.91,37.28 15.07,35.06 14.09,32.01 C14.56,32.1 15.04,32.15 15.54,32.15 C16.24,32.15 16.92,32.05 17.57,31.88 C14.05,31.17 11.4,28.07 11.4,24.35 C11.4,24.32 11.4,24.29 11.4,24.25 C12.44,24.83 13.62,25.17 14.88,25.21 C12.82,23.83 11.46,21.48 11.46,18.81 C11.46,17.4 11.84,16.08 12.5,14.95 C16.29,19.6 21.95,22.66 28.34,22.98 C28.21,22.42 28.14,21.83 28.14,21.23 C28.14,16.99 31.58,13.55 35.82,13.55 C38.03,13.55 40.03,14.48 41.43,15.98 C43.18,15.64 44.83,15 46.31,14.12 C45.74,15.91 44.52,17.42 42.93,18.37 C44.49,18.19 45.97,17.77 47.34,17.16 C46.33,18.67 45.02,20.03 43.52,21.11 Z" id="Shape"></path>
        </g>
    </g>
</svg>