<?xml version="1.0" encoding="utf-8"?>
<!-- Generator: Adobe Illustrator 15.0.0, SVG Export Plug-In . SVG Version: 6.00 Build 0)  -->
<!DOCTYPE svg PUBLIC "-//W3C//DTD SVG 1.1//EN" "http://www.w3.org/Graphics/SVG/1.1/DTD/svg11.dtd">
<svg version="1.1" id="Layer_1" xmlns="http://www.w3.org/2000/svg" xmlns:xlink="http://www.w3.org/1999/xlink" x="0px" y="0px"
	 width="56px" height="56px" viewBox="0 0 56 56" enable-background="new 0 0 56 56" xml:space="preserve">
<path fill="#FFFFFF" d="M28,0C12.536,0,0,12.536,0,28s12.536,28,28,28s28-12.536,28-28S43.464,0,28,0z M19.018,41.854h-6.742V20.167
	h6.742V41.854z M15.645,17.202c-2.16,0-3.906-1.752-3.906-3.91c0-2.156,1.748-3.907,3.906-3.907c2.157,0,3.907,1.751,3.907,3.907
	C19.552,15.45,17.802,17.202,15.645,17.202z M44.262,41.854h-6.732V31.309c0-2.518-0.051-5.751-3.502-5.751
	c-3.51,0-4.045,2.742-4.045,5.569v10.729h-6.736V20.167h6.468v2.963h0.093c0.897-1.704,3.1-3.502,6.379-3.502
	c6.82,0,8.08,4.49,8.08,10.332L44.262,41.854L44.262,41.854z"/>
</svg>
