<svg xmlns="http://www.w3.org/2000/svg" xmlns:xlink="http://www.w3.org/1999/xlink" version="1.1" id="Layer_1" x="0" y="0" width="56" height="56" viewBox="0" enable-background="new 0 0 56 56" xml:space="preserve"><path fill="#FFFFFF" d="M28 0C12.53 0 0 12.54 0 28s12.53 28 28 28c15.47 0 28-12.54 28-28S43.46 0 28 0zM31.17 37.44c-2.55 0-4.95-1.38-5.77-2.94 0 0-1.37 5.45-1.66 6.5 -1.02 3.72-4.04 7.43-4.27 7.74 -0.16 0.21-0.52 0.15-0.56-0.14 -0.06-0.47-0.83-5.16 0.07-8.98 0.45-1.92 3.04-12.88 3.04-12.88s-0.75-1.51-0.75-3.74c0-3.5 2.03-6.12 4.56-6.12 2.15 0 3.19 1.61 3.19 3.55 0 2.16-1.37 5.4-2.09 8.39 -0.59 2.51 1.26 4.55 3.73 4.55 4.48 0 7.5-5.75 7.5-12.57 0-5.18-3.49-9.06-9.84-9.06 -7.17 0-11.64 5.35-11.64 11.32 0 2.06 0.61 3.51 1.56 4.64 0.44 0.52 0.5 0.72 0.34 1.32 -0.11 0.44-0.37 1.48-0.48 1.9 -0.15 0.6-0.64 0.81-1.18 0.59 -3.3-1.35-4.84-4.96-4.84-9.03 0-6.71 5.67-14.77 16.9-14.77 9.03 0 14.97 6.53 14.97 13.54C43.93 30.51 38.78 37.44 31.17 37.44z"/></svg>