<?xml version="1.0" encoding="UTF-8"?>
<svg width="56px" height="56px" viewBox="0 0 56 56" version="1.1" xmlns="http://www.w3.org/2000/svg" xmlns:xlink="http://www.w3.org/1999/xlink">
    <!-- Generator: Sketch 49.3 (51167) - http://www.bohemiancoding.com/sketch -->
    <title>social-icon-dribbble</title>
    <desc>Created with Sketch.</desc>
    <defs></defs>
    <g id="Page-1" stroke="none" stroke-width="1" fill="none" fill-rule="evenodd">
        <g id="social-icon-dribbble" fill="#425057" fill-rule="nonzero">
            <path d="M20.41,11.93 C20.37,11.93 20.34,11.93 20.3,11.93 C15.36,14.46 11.85,18.41 10.45,24.47 C16.66,24.45 21.98,23.55 26.99,22.34 C25.15,18.72 22.74,15.22 20.41,11.93 Z" id="Shape"></path>
            <path d="M30,28.02 C29.45,27.07 29.11,25.91 28.47,25.06 C23.05,26.61 17.08,27.61 10.07,27.58 C10.06,33.32 12,37.11 14.73,40.12 C18.27,34.55 23.13,30.29 30,28.02 Z" id="Shape"></path>
            <path d="M17.02,42.26 C18.98,43.9 21.8,45.33 25.02,45.87 C28.61,46.48 32.37,45.86 35.04,44.67 C34.14,39.75 32.89,35.18 31.15,31.09 C24.93,33.31 20.1,36.91 17.02,42.26 Z" id="Shape"></path>
            <path d="M28,0 C12.54,0 0,12.54 0,28 C0,43.46 12.54,56 28,56 C43.46,56 56,43.46 56,28 C56,12.54 43.46,0 28,0 Z M47.24,36.73 C44.15,43.62 37.87,48.53 28.51,49.16 C28.18,49.16 27.85,49.16 27.53,49.16 C21.22,48.85 16.62,46.39 13.24,43.08 C9.87,39.78 7.43,35.17 7,29.01 C7,28.41 7,27.81 7,27.2 C7.04,27.19 7.06,27.15 7.06,27.09 C7.3,22.31 8.92,18.61 11.17,15.65 C13.44,12.67 16.24,10.29 19.82,8.75 C23.56,7.15 28.77,6.62 33.13,7.71 C37.11,8.7 40.54,10.75 43.04,13.41 C45.54,16.06 47.66,19.34 48.57,23.43 C49.57,27.95 48.89,33.06 47.24,36.73 Z" id="Shape"></path>
            <path d="M39.91,14.77 C36.69,11.47 30.15,9.15 23.87,10.66 C26.26,14.02 28.46,17.57 30.61,21.17 C34.37,19.72 37.57,17.68 39.91,14.77 Z" id="Shape"></path>
            <path d="M34.6,30.21 C36.02,34.23 37.22,38.48 38.1,43.02 C41.92,40.28 44.79,36.57 45.77,30.98 C42.69,30.07 38.35,29.62 34.6,30.21 Z" id="Shape"></path>
            <path d="M31.91,23.86 C32.48,25.02 32.95,26.29 33.55,27.42 C37.62,26.83 42.35,27.28 45.98,27.97 C45.84,23.02 44.2,19.57 41.87,16.8 C39.39,19.98 35.91,22.18 31.91,23.86 Z" id="Shape"></path>
        </g>
    </g>
</svg>