<?xml version="1.0" encoding="UTF-8"?>
<svg width="56px" height="56px" viewBox="0 0 56 56" version="1.1" xmlns="http://www.w3.org/2000/svg" xmlns:xlink="http://www.w3.org/1999/xlink">
    <!-- Generator: Sketch 49.3 (51167) - http://www.bohemiancoding.com/sketch -->
    <title>social-icon-email</title>
    <desc>Created with Sketch.</desc>
    <defs></defs>
    <g id="Page-1" stroke="none" stroke-width="1" fill="none" fill-rule="evenodd">
        <g id="social-icon-email" fill="#425057" fill-rule="nonzero">
            <path d="M28,0 C12.535,0 0,12.538 0,28 C0,43.462 12.535,56 28,56 C43.465,56 56,43.462 56,28 C56,12.538 43.465,0 28,0 Z M11.975,16.345 L44.027,16.345 C44.119,16.345 44.201,16.381 44.286,16.399 L28,29.963 L11.721,16.401 C11.811,16.382 11.889,16.345 11.975,16.345 Z M10.52,38.193 L10.52,17.805 C10.52,17.648 10.565,17.509 10.612,17.369 L22.16,26.987 L10.594,38.553 C10.559,38.436 10.52,38.323 10.52,38.193 Z M44.025,39.652 L11.975,39.652 C11.852,39.652 11.742,39.609 11.621,39.58 L23.28,27.926 L27.538,31.471 C27.671,31.584 27.832,31.641 28,31.641 C28.168,31.641 28.332,31.584 28.467,31.471 L32.727,27.925 L44.382,39.581 C44.266,39.609 44.152,39.652 44.025,39.652 Z M45.48,38.193 C45.48,38.322 45.445,38.431 45.412,38.547 L33.848,26.986 L45.395,17.37 C45.442,17.508 45.483,17.648 45.483,17.803 L45.483,38.194 L45.48,38.194 L45.48,38.193 Z" id="Shape"></path>
        </g>
    </g>
</svg>