<?xml version="1.0" encoding="UTF-8"?>
<svg width="56px" height="56px" viewBox="0 0 56 56" version="1.1" xmlns="http://www.w3.org/2000/svg" xmlns:xlink="http://www.w3.org/1999/xlink">
    <!-- Generator: Sketch 49.3 (51167) - http://www.bohemiancoding.com/sketch -->
    <title>social-icon-linkedin</title>
    <desc>Created with Sketch.</desc>
    <defs></defs>
    <g id="Page-1" stroke="none" stroke-width="1" fill="none" fill-rule="evenodd">
        <g id="social-icon-linkedin" fill="#425057" fill-rule="nonzero">
            <path d="M28,0 C12.536,0 0,12.536 0,28 C0,43.464 12.536,56 28,56 C43.464,56 56,43.464 56,28 C56,12.536 43.464,0 28,0 Z M19.018,41.854 L12.276,41.854 L12.276,20.167 L19.018,20.167 L19.018,41.854 Z M15.645,17.202 C13.485,17.202 11.739,15.45 11.739,13.292 C11.739,11.136 13.487,9.385 15.645,9.385 C17.802,9.385 19.552,11.136 19.552,13.292 C19.552,15.45 17.802,17.202 15.645,17.202 Z M44.262,41.854 L37.53,41.854 L37.53,31.309 C37.53,28.791 37.479,25.558 34.028,25.558 C30.518,25.558 29.983,28.3 29.983,31.127 L29.983,41.856 L23.247,41.856 L23.247,20.167 L29.715,20.167 L29.715,23.13 L29.808,23.13 C30.705,21.426 32.908,19.628 36.187,19.628 C43.007,19.628 44.267,24.118 44.267,29.96 L44.262,41.854 Z" id="Shape"></path>
        </g>
    </g>
</svg>